<svg id="visual" viewBox="0 0 1920 540" width="1920" height="540" xmlns="http://www.w3.org/2000/svg" xmlns:xlink="http://www.w3.org/1999/xlink" version="1.1"><path d="M0 367L45.7 365.8C91.3 364.7 182.7 362.3 274.2 354.5C365.7 346.7 457.3 333.3 548.8 328.7C640.3 324 731.7 328 823 340.7C914.3 353.3 1005.7 374.7 1097 372C1188.3 369.3 1279.7 342.7 1371.2 333.8C1462.7 325 1554.3 334 1645.8 333.8C1737.3 333.7 1828.7 324.3 1874.3 319.7L1920 315L1920 541L1874.3 541C1828.7 541 1737.3 541 1645.8 541C1554.3 541 1462.7 541 1371.2 541C1279.7 541 1188.3 541 1097 541C1005.7 541 914.3 541 823 541C731.7 541 640.3 541 548.8 541C457.3 541 365.7 541 274.2 541C182.7 541 91.3 541 45.7 541L0 541Z" fill="#fa7268"></path><path d="M0 383L45.7 380.5C91.3 378 182.7 373 274.2 378C365.7 383 457.3 398 548.8 398.7C640.3 399.3 731.7 385.7 823 385.2C914.3 384.7 1005.7 397.3 1097 402C1188.3 406.7 1279.7 403.3 1371.2 396C1462.7 388.7 1554.3 377.3 1645.8 373.7C1737.3 370 1828.7 374 1874.3 376L1920 378L1920 541L1874.3 541C1828.7 541 1737.3 541 1645.8 541C1554.3 541 1462.7 541 1371.2 541C1279.7 541 1188.3 541 1097 541C1005.7 541 914.3 541 823 541C731.7 541 640.3 541 548.8 541C457.3 541 365.7 541 274.2 541C182.7 541 91.3 541 45.7 541L0 541Z" fill="#ef5f67"></path><path d="M0 447L45.7 442C91.3 437 182.7 427 274.2 420.8C365.7 414.7 457.3 412.3 548.8 418.2C640.3 424 731.7 438 823 438.8C914.3 439.7 1005.7 427.3 1097 419.5C1188.3 411.7 1279.7 408.3 1371.2 414.5C1462.7 420.7 1554.3 436.3 1645.8 439.3C1737.3 442.3 1828.7 432.7 1874.3 427.8L1920 423L1920 541L1874.3 541C1828.7 541 1737.3 541 1645.8 541C1554.3 541 1462.7 541 1371.2 541C1279.7 541 1188.3 541 1097 541C1005.7 541 914.3 541 823 541C731.7 541 640.3 541 548.8 541C457.3 541 365.7 541 274.2 541C182.7 541 91.3 541 45.7 541L0 541Z" fill="#e34c67"></path><path d="M0 461L45.7 456.3C91.3 451.7 182.7 442.3 274.2 441.2C365.7 440 457.3 447 548.8 454.7C640.3 462.3 731.7 470.7 823 475.5C914.3 480.3 1005.7 481.7 1097 478.5C1188.3 475.3 1279.7 467.7 1371.2 461.3C1462.7 455 1554.3 450 1645.8 448.5C1737.3 447 1828.7 449 1874.3 450L1920 451L1920 541L1874.3 541C1828.7 541 1737.3 541 1645.8 541C1554.3 541 1462.7 541 1371.2 541C1279.7 541 1188.3 541 1097 541C1005.7 541 914.3 541 823 541C731.7 541 640.3 541 548.8 541C457.3 541 365.7 541 274.2 541C182.7 541 91.3 541 45.7 541L0 541Z" fill="#d53867"></path><path d="M0 482L45.7 485.8C91.3 489.7 182.7 497.3 274.2 497C365.7 496.7 457.3 488.3 548.8 486C640.3 483.7 731.7 487.3 823 492.5C914.3 497.7 1005.7 504.3 1097 502.7C1188.3 501 1279.7 491 1371.2 487.8C1462.7 484.7 1554.3 488.3 1645.8 488.7C1737.3 489 1828.7 486 1874.3 484.5L1920 483L1920 541L1874.3 541C1828.7 541 1737.3 541 1645.8 541C1554.3 541 1462.7 541 1371.2 541C1279.7 541 1188.3 541 1097 541C1005.7 541 914.3 541 823 541C731.7 541 640.3 541 548.8 541C457.3 541 365.7 541 274.2 541C182.7 541 91.3 541 45.7 541L0 541Z" fill="#c62368"></path></svg>